<svg role="img" viewBox="0 0 24 24" xmlns="http://www.w3.org/2000/svg" id="Dotnet--Streamline-Simple-Icons" height="24" width="24"><desc>Dotnet Streamline Icon: https://streamlinehq.com</desc><title>.NET</title><path d="M24 8.77h-2.468v7.565h-1.425V8.77h-2.462V7.53H24zm-6.852 7.565h-4.821V7.53h4.63v1.24h-3.205v2.494h2.953v1.234h-2.953v2.604h3.396zm-6.708 0H8.882L4.78 9.863a2.896 2.896 0 0 1 -0.258 -0.51h-0.036c0.032 0.189 0.048 0.592 0.048 1.21v5.772H3.157V7.53h1.659l3.965 6.32c0.167 0.261 0.275 0.442 0.323 0.54h0.024c-0.04 -0.233 -0.06 -0.629 -0.06 -1.185V7.529h1.372zm-8.703 -0.693a0.868 0.829 0 0 1 -0.869 0.829 0.868 0.829 0 0 1 -0.868 -0.83 0.868 0.829 0 0 1 0.868 -0.828 0.868 0.829 0 0 1 0.869 0.829Z" fill="#000000" stroke-width="1"></path></svg>