<svg xmlns="http://www.w3.org/2000/svg" viewBox="0 0 16 16" id="Linux--Streamline-Font-Awesome" height="16" width="16"><desc>Linux Streamline Icon: https://streamlinehq.com</desc><!--! Font Awesome Free 6.5.2 by @fontawesome - https://fontawesome.com License - https://fontawesome.com/license/free (Icons: CC BY 4.0, Fonts: SIL OFL 1.1, Code: MIT License) Copyright 2024 Fonticons, Inc.--><path d="M7.898992857142856 3.9357571428571427c0.030625 0.015310714285714285 0.05512142857142857 0.05205714285714286 0.09186785714285713 0.05205714285714286 0.033685714285714284 0 0.08574285714285713 -0.01224642857142857 0.08880714285714286 -0.04593214285714285 0.006121428571428571 -0.04287142857142857 -0.058185714285714285 -0.07043214285714285 -0.09799285714285713 -0.08880714285714286 -0.05205714285714286 -0.021435714285714284 -0.11942857142857141 -0.03062142857142857 -0.16842500000000002 -0.0030607142857142855 -0.01224642857142857 0.006125 -0.02449642857142857 0.021435714285714284 -0.01837142857142857 0.033685714285714284 0.009185714285714285 0.03980714285714285 0.07043214285714285 0.033682142857142855 0.10411428571428571 0.05205714285714286Zm-0.6706321428571428 0.05205714285714286c0.03674642857142857 0 0.06124642857142857 -0.03674642857142857 0.09186785714285713 -0.05205714285714286 0.033685714285714284 -0.018375 0.09493214285714285 -0.01225 0.10717857142857141 -0.048996428571428566 0.006125 -0.01225 -0.006125 -0.027560714285714286 -0.01837142857142857 -0.033685714285714284 -0.048996428571428566 -0.027560714285714286 -0.11636785714285715 -0.01837142857142857 -0.16842500000000002 0.0030642857142857143 -0.03981071428571428 0.01837142857142857 -0.10411785714285712 0.04593214285714285 -0.09799285714285713 0.08880357142857143 0.0030642857142857143 0.03062142857142857 0.05512142857142857 0.04593571428571428 0.08574285714285713 0.04287142857142857Zm6.770624999999999 8.537539285714285c-0.1102392857142857 -0.1224892857142857 -0.1623 -0.3552214285714285 -0.22048214285714285 -0.6032607142857143 -0.05512142857142857 -0.24804285714285712 -0.11942857142857141 -0.5144571428571428 -0.32153571428571426 -0.6859428571428571 -0.03980714285714285 -0.033685714285714284 -0.07961785714285713 -0.06430714285714285 -0.1224892857142857 -0.08880714285714286 -0.03981071428571428 -0.02449642857142857 -0.08268214285714286 -0.04593214285714285 -0.1255535714285714 -0.06124285714285714 0.2817285714285714 -0.8359928571428572 0.17148571428571427 -1.668925 -0.1133 -2.422235714285714 -0.34909642857142853 -0.9217357142857142 -0.9584857142857142 -1.7271071428571427 -1.4239464285714285 -2.2783107142857144 -0.5236428571428572 -0.6583821428571428 -1.0319749999999999 -1.2830821428571426 -1.0227892857142857 -2.204817857142857 0.015310714285714285 -1.4055714285714285 0.15617499999999998 -4.017664285714286 -2.321182142857143 -4.020728571428571 -3.1357392857142856 -0.006121428571428571 -2.351803571428571 3.1663642857142853 -2.3854892857142858 4.140157142857142 -0.05205714285714286 0.7165642857142857 -0.19598214285714283 1.280017857142857 -0.6890035714285715 1.9812714285714286 -0.5787642857142857 0.6890071428571428 -1.3933214285714284 1.8006 -1.7791642857142858 2.9611928571428567 -0.18373571428571425 0.5481392857142856 -0.2694785714285714 1.1054678571428571 -0.18986071428571427 1.6321749999999997 -0.19904642857142854 0.17761071428571426 -0.34909642857142853 0.45015 -0.5083321428571428 0.618575 -0.1286142857142857 0.131675 -0.31541071428571427 0.18067142857142854 -0.5205821428571428 0.2541642857142857s-0.42871428571428566 0.18373571428571425 -0.5665142857142856 0.44402857142857144c-0.06430714285714285 0.119425 -0.08574285714285713 0.2480392857142857 -0.08574285714285713 0.3797178571428571 0 0.119425 0.018375 0.24191785714285713 0.03674642857142857 0.3613428571428571 0.03674642857142857 0.24804285714285712 0.07655714285714287 0.480775 0.0245 0.6369464285714285 -0.15923928571428572 0.4409642857142857 -0.180675 0.7471892857142857 -0.06737142857142857 0.9707321428571427 0.11636428571428571 0.22354642857142853 0.34909642857142853 0.32153571428571426 0.6155107142857142 0.37665714285714286 0.5297714285714286 0.1102392857142857 1.2493964285714285 0.08268214285714286 1.8159142857142856 0.38278214285714285 0.6063214285714286 0.3184714285714285 1.2218357142857141 0.431775 1.7117928571428571 0.3184714285714285 0.3552214285714285 -0.07961785714285713 0.6461357142857143 -0.29397499999999993 0.7931214285714285 -0.6185714285714285 0.38278214285714285 -0.0030642857142857143 0.8053714285714285 -0.16536071428571428 1.4790642857142857 -0.20211071428571425 0.456275 -0.03674642857142857 1.0289142857142857 0.1623 1.6872964285714285 0.1255535714285714 0.018375 0.07043214285714285 0.04287142857142857 0.1408642857142857 0.07655714285714287 0.20517142857142856v0.0030607142857142855c0.2541678571428571 0.5113964285714285 0.7288142857142856 0.7441249999999999 1.2340857142857142 0.7043178571428571 0.5083321428571428 -0.03981071428571428 1.044225 -0.33684642857142855 1.4790642857142857 -0.8543678571428571 0.4164642857142857 -0.5022071428571429 1.1024071428571427 -0.7104392857142856 1.5586821428571427 -0.9860428571428571 0.22660714285714284 -0.1378 0.4103392857142857 -0.3092857142857143 0.4256535714285714 -0.5603892857142857 0.01224642857142857 -0.2511035714285714 -0.1347392857142857 -0.5297714285714286 -0.47465 -0.9094892857142856ZM7.9878 2.83335c0.3001 -0.6798214285714286 1.0472857142857144 -0.6675714285714286 1.3473857142857142 -0.01225 0.19904642857142854 0.43483928571428565 0.11024285714285714 0.9462321428571427 -0.131675 1.2371464285714284 -0.048996428571428566 -0.02449642857142857 -0.18067142857142854 -0.07961785714285713 -0.3858428571428571 -0.15005 0.033685714285714284 -0.03674642857142857 0.09492857142857142 -0.08267857142857142 0.11942857142857141 -0.1408642857142857 0.14698571428571428 -0.3613428571428571 -0.006125 -0.8268035714285714 -0.2786642857142857 -0.8359928571428572 -0.22354642857142853 -0.015310714285714285 -0.4256535714285714 0.330725 -0.3613464285714285 0.7043178571428571 -0.1255535714285714 -0.06124642857142857 -0.28784999999999994 -0.10717857142857141 -0.3980928571428571 -0.1347392857142857 -0.03062142857142857 -0.21129285714285712 -0.009185714285714285 -0.44708571428571425 0.08880714285714286 -0.6675678571428572Zm-1.246335714285714 -0.35216071428571427c0.3092892857142857 0 0.6369464285714285 0.43483928571428565 0.5848892857142857 1.0258535714285715 -0.10717857142857141 0.03062142857142857 -0.21741785714285713 0.07655714285714287 -0.31234999999999996 0.1408642857142857 0.03675 -0.2725392857142857 -0.10105357142857142 -0.6155142857142857 -0.29397499999999993 -0.6002 -0.2572285714285714 0.021435714285714284 -0.3001 0.6491964285714285 -0.055117857142857135 0.8604892857142856 0.03062142857142857 0.02449642857142857 0.058182142857142856 -0.006125 -0.180675 0.16842500000000002 -0.47771071428571427 -0.4470892857142857 -0.32153571428571426 -1.5954321428571427 0.2572285714285714 -1.5954321428571427Zm-0.4164642857142857 1.8587857142857143c0.18986071428571427 -0.1408642857142857 0.4164642857142857 -0.30622499999999997 0.431775 -0.32153571428571426 0.14392499999999997 -0.1347392857142857 0.4134035714285714 -0.43483928571428565 0.8543678571428571 -0.43483928571428565 0.21741785714285713 0 0.47771071428571427 0.07043214285714285 0.7931214285714285 0.2725392857142857 0.19292142857142855 0.12555 0.34603214285714284 0.1347392857142857 0.6920678571428571 0.2847892857142857 0.2572285714285714 0.10717857142857141 0.4195285714285714 0.2970357142857143 0.32153571428571426 0.5573285714285714 -0.07961785714285713 0.21741785714285713 -0.33684642857142855 0.44096071428571426 -0.6951285714285714 0.5542642857142857 -0.3399107142857143 0.11024285714285714 -0.606325 0.48996071428571425 -1.1697785714285713 0.456275 -0.11942857142857141 -0.006125 -0.21435714285714283 -0.03062142857142857 -0.29397499999999993 -0.06430714285714285 -0.24498214285714284 -0.10717857142857141 -0.3735964285714285 -0.3184714285714285 -0.6124499999999999 -0.45933571428571424 -0.2633535714285714 -0.1469892857142857 -0.4042178571428571 -0.31847499999999995 -0.45015 -0.46852499999999997 -0.04287142857142857 -0.15005 0 -0.2756 0.1286142857142857 -0.3766535714285714Zm0.10105357142857142 10.227896428571428c-0.08268214285714286 1.0748499999999999 -1.344325 1.0534142857142856 -2.305871428571429 0.5512035714285713 -0.9156107142857143 -0.4838321428571428 -2.1007 -0.19904642857142854 -2.342617857142857 -0.6706321428571428 -0.07349285714285714 -0.14392499999999997 -0.07349285714285714 -0.3889035714285714 0.07962142857142857 -0.8084321428571428v-0.006125c0.07349285714285714 -0.23272857142857142 0.01837142857142857 -0.4899571428571428 -0.018375 -0.7318749999999999 -0.03674642857142857 -0.23885357142857142 -0.05512142857142857 -0.45933571428571424 0.027560714285714286 -0.6124499999999999 0.10717857142857141 -0.20516785714285712 0.2602892857142857 -0.2786642857142857 0.45321071428571424 -0.34603214285714284 0.31541071428571427 -0.11330357142857142 0.3613464285714285 -0.10411785714285712 0.6002 -0.3031642857142857 0.16842500000000002 -0.17454642857142855 0.2909142857142857 -0.3950285714285714 0.4379035714285714 -0.5512035714285713 0.15617142857142854 -0.16842142857142856 0.30622142857142853 -0.2480392857142857 0.5420142857142857 -0.21129285714285712 0.24804285714285712 0.03674642857142857 0.4624 0.20823214285714284 0.6706321428571428 0.4899571428571428l0.6002 1.0901607142857141c0.2909142857142857 0.6093857142857142 1.3198285714285714 1.482125 1.2555214285714287 2.109885714285714Zm-0.04287142857142857 -0.7931214285714285c-0.1255535714285714 -0.20210714285714285 -0.29397499999999993 -0.4164642857142857 -0.4409642857142857 -0.6002 0.21742142857142854 0 0.43483928571428565 -0.06736785714285715 0.5113964285714285 -0.2725392857142857 0.07043214285714285 -0.18986071428571427 0 -0.456275 -0.22660714285714284 -0.7625 -0.4134035714285714 -0.5573285714285714 -1.1728392857142858 -0.9952285714285714 -1.1728392857142858 -0.9952285714285714 -0.4134035714285714 -0.2572285714285714 -0.6461321428571428 -0.5726392857142857 -0.7533107142857143 -0.9156107142857143s-0.09186785714285713 -0.7135035714285715 -0.009189285714285712 -1.0779107142857143c0.15923928571428572 -0.7012535714285715 0.5695785714285714 -1.3841357142857142 0.8329321428571428 -1.8128499999999999 0.07043214285714285 -0.05205714285714286 0.02449642857142857 0.09799285714285713 -0.2664142857142857 0.6369464285714285 -0.2602928571428571 0.49302142857142855 -0.7471892857142857 1.6321785714285713 -0.07961785714285713 2.523292857142857 0.01837142857142857 -0.6338857142857143 0.16842142857142856 -1.2800214285714286 0.42258928571428567 -1.883282142857143 0.3674678571428571 -0.8390535714285714 1.142217857142857 -2.2936214285714285 1.203460714285714 -3.4511499999999997 0.033685714285714284 0.02449642857142857 0.1408642857142857 0.09799285714285713 0.18986071428571427 0.1255535714285714 0.14086071428571428 0.08267857142857142 0.2480392857142857 0.20516785714285712 0.3858428571428571 0.31541071428571427 0.3797178571428571 0.30622499999999997 0.8727392857142856 0.281725 1.2983892857142856 0.03674642857142857 0.18986071428571427 -0.10717857142857141 0.34297142857142854 -0.22966785714285712 0.48689642857142856 -0.2756035714285714 0.3031642857142857 -0.09492857142857142 0.5450821428571428 -0.2633535714285714 0.6828821428571428 -0.45933571428571424 0.23579285714285714 0.9309214285714285 0.7869964285714286 2.2752464285714282 1.1391535714285714 2.9305678571428566 0.1868 0.34909642857142853 0.5603928571428571 1.0870964285714286 0.722692857142857 1.9782107142857142 0.10105357142857142 -0.0030607142857142855 0.21435714285714283 0.01225 0.33378214285714286 0.04287142857142857 0.42258928571428567 -1.0932214285714286 -0.3582821428571428 -2.272185714285714 -0.7135035714285715 -2.5998464285714284 -0.14392499999999997 -0.1408642857142857 -0.15005 -0.20210714285714285 -0.07961785714285713 -0.19904642857142854 0.3858428571428571 0.34297142857142854 0.8941785714285714 1.0319785714285714 1.0779107142857143 1.8067249999999997 0.08574285714285713 0.3552214285714285 0.10105357142857142 0.7257535714285714 0.01225 1.0932214285714286 0.5022071428571429 0.20823214285714284 1.0993464285714285 0.5481428571428572 0.9401107142857142 1.0656607142857142 -0.06737142857142857 -0.0030607142857142855 -0.09799285714285713 0 -0.1286142857142857 0 0.09798928571428571 -0.3092857142857143 -0.11942857142857141 -0.5389535714285714 -0.6981928571428571 -0.7992464285714286 -0.6002 -0.26335 -1.1024071428571427 -0.26335 -1.1728392857142858 0.38278214285714285 -0.37053214285714287 0.1286142857142857 -0.5603928571428571 0.45015 -0.6553214285714285 0.8359928571428572 -0.08574285714285713 0.34297142857142854 -0.1102392857142857 0.7563749999999999 -0.1347392857142857 1.2218357142857141 -0.015310714285714285 0.23579285714285714 -0.1102392857142857 0.5512035714285713 -0.20823214285714284 0.88805 -0.9829821428571428 0.7012571428571429 -2.348742857142857 1.0074785714285712 -3.500146428571428 0.22048214285714285Zm7.882217857142857 -0.35215714285714284c-0.027560714285714286 0.5144571428571428 -1.261642857142857 0.6093857142857142 -1.9353392857142857 1.423942857142857 -0.4042142857142857 0.48077142857142857 -0.9003 0.7471892857142857 -1.3351357142857143 0.7808714285714285s-0.8114964285714286 -0.14698571428571428 -1.0319785714285714 -0.5910107142857143c-0.14392499999999997 -0.3399107142857143 -0.07349285714285714 -0.7073785714285714 0.033685714285714284 -1.1115964285714286 0.11330357142857142 -0.43483928571428565 0.281725 -0.881925 0.3031607142857143 -1.2432714285714284 0.0245 -0.4654607142857142 0.05206071428571428 -0.8727392857142856 0.1286142857142857 -1.1850892857142856 0.07961785714285713 -0.31541071428571427 0.20211071428571425 -0.5267035714285714 0.4195285714285714 -0.6461321428571428 0.009185714285714285 -0.006125 0.021435714285714284 -0.009185714285714285 0.03062142857142857 -0.015310714285714285 0.0245 0.4042142857142857 0.22354642857142853 0.8145571428571429 0.5757035714285714 0.9033607142857143 0.3858428571428571 0.10105357142857142 0.9401071428571428 -0.22966785714285712 1.1758999999999997 -0.49914642857142855 0.2756035714285714 -0.009185714285714285 0.480775 -0.027560714285714286 0.6920678571428571 0.15617499999999998 0.3031642857142857 0.2602928571428571 0.21742142857142854 0.9278607142857143 0.5236464285714285 1.273892857142857 0.3245964285714285 0.3552214285714285 0.42871428571428566 0.5971392857142857 0.419525 0.7533142857142857ZM6.4444285714285705 4.7135678571428565c0.06124285714285714 0.058182142857142856 0.14392499999999997 0.1378 0.2449785714285714 0.21741785714285713 0.20210714285714285 0.15923571428571426 0.48383571428571426 0.3246 0.8359928571428572 0.3246 0.3552214285714285 0 0.6890035714285715 -0.180675 0.9737928571428571 -0.330725 0.15005 -0.07961785714285713 0.3337857142857143 -0.21435714285714283 0.4532142857142857 -0.3184714285714285s0.18067142857142854 -0.19292142857142855 0.09492857142857142 -0.20211071428571425 -0.07961785714285713 0.07961785714285713 -0.18373571428571425 0.15617499999999998c-0.1347392857142857 0.09799285714285713 -0.2970357142857143 0.22660714285714284 -0.42565 0.3001 -0.22660714285714284 0.1286142857142857 -0.5971392857142857 0.31234999999999996 -0.9156142857142857 0.31234999999999996s-0.5726392857142857 -0.1469892857142857 -0.7624964285714286 -0.2970392857142857c-0.09493214285714285 -0.07655357142857143 -0.17455 -0.15311071428571427 -0.23579285714285714 -0.21129285714285712 -0.04593571428571428 -0.04287142857142857 -0.058182142857142856 -0.1408642857142857 -0.13167857142857142 -0.15005 -0.04287142857142857 -0.0030642857142857143 -0.055117857142857135 0.11330357142857142 0.05206071428571428 0.19904642857142854Z" fill="#000000" stroke-width="0.0357"></path></svg>