<svg width="140" height="31" viewBox="0 0 140 31" fill="none" xmlns="http://www.w3.org/2000/svg">
<path d="M0 0.104982L1.34587e-06 30.895L2.56584 26.7255L2.56584 4.27446L0 0.104982Z" fill="white"/>
<path d="M4.04979 0.104982L4.04979 30.895L6.61562 25.1219L6.61562 5.87811L4.04979 0.104982Z" fill="white"/>
<path d="M8.09939 30.895L8.09938 0.104981L10.6652 7.48176V23.5182L8.09939 30.895Z" fill="white"/>
<path d="M12.1492 0.104981L12.1492 30.895L14.715 21.9146L14.715 9.08541L12.1492 0.104981Z" fill="white"/>
<path d="M16.1988 30.895L16.1988 0.104981L18.7646 10.6891L18.7646 20.3109L16.1988 30.895Z" fill="white"/>
<path d="M20.2486 0.104981L20.2486 30.895L22.8144 18.7073V12.2927L20.2486 0.104981Z" fill="white"/>
<path d="M24.2982 30.895L24.2981 0.104981L26.864 13.8963V17.1036L24.2982 30.895Z" fill="white"/>
<path d="M30.9138 15.5L28.348 0.10498L28.348 30.895L30.9138 15.5Z" fill="white"/>
<path d="M131.924 26.982V3.55115H136.044V9.28011H140V12.9492H134.76L136.044 14.7634V26.982H131.924Z" fill="white"/>
<path fill-rule="evenodd" clip-rule="evenodd" d="M96.6325 19.4345C96.7719 20.7112 97.2762 21.7197 98.1452 22.46C99.0249 23.1895 100.157 23.5543 101.541 23.5543C102.463 23.5543 103.289 23.3611 104.019 22.9749C104.759 22.5887 105.344 22.0469 105.773 21.3496H110.215C109.464 23.2807 108.337 24.7827 106.835 25.8555C105.344 26.9176 103.617 27.4487 101.653 27.4487C100.334 27.4487 99.1161 27.218 98.0003 26.7567C96.8953 26.2846 95.9029 25.5926 95.0232 24.6807C94.1864 23.8117 93.5373 22.8086 93.076 21.6714C92.6147 20.5235 92.384 19.3487 92.384 18.1471C92.384 16.9134 92.5932 15.7547 93.0116 14.6711C93.4408 13.5768 94.0684 12.5952 94.8945 11.7262C95.7956 10.7714 96.8148 10.0365 97.952 9.5215C99.0893 9.00654 100.264 8.74906 101.476 8.74906C103.01 8.74906 104.443 9.09773 105.773 9.79508C107.103 10.4924 108.235 11.4741 109.169 12.74C109.737 13.5017 110.156 14.3546 110.424 15.2987C110.703 16.2428 110.842 17.3264 110.842 18.5495C110.842 18.646 110.837 18.7962 110.826 19C110.815 19.1932 110.81 19.338 110.81 19.4345H96.6325ZM106.401 16.1677C106.047 14.9876 105.451 14.0918 104.614 13.4803C103.788 12.858 102.742 12.5469 101.476 12.5469C100.382 12.5469 99.4004 12.8795 98.5314 13.5447C97.6624 14.2098 97.0777 15.0842 96.7773 16.1677H106.401Z" fill="white"/>
<path d="M81.2479 12.8688C79.6494 12.9975 78.5336 13.4159 77.9007 14.124C77.2677 14.8321 76.9512 16.1087 76.9512 17.954V26.982H72.8315V9.28011H76.6937V11.3239C77.316 10.53 77.9972 9.95064 78.7375 9.58587C79.4777 9.21038 80.3146 9.02263 81.2479 9.02263V12.8688Z" fill="white"/>
<path d="M65.2841 26.982V25.067C64.6833 25.8716 63.9913 26.4724 63.2081 26.8693C62.4357 27.2556 61.5506 27.4487 60.5528 27.4487C58.3321 27.4487 56.6262 26.7674 55.4354 25.4049C54.2445 24.0424 53.6491 22.0845 53.6491 19.5311V9.28011H57.8171V17.2299C57.8171 19.6223 58.0907 21.2584 58.6378 22.1381C59.185 23.0178 60.1291 23.4577 61.4701 23.4577C62.8433 23.4577 63.825 22.9642 64.4151 21.9772C65.0159 20.9902 65.3162 19.3165 65.3162 16.9563V9.28011H69.3716V26.982H65.2841Z" fill="white"/>
<path d="M88.4252 14.124C89.0582 13.4159 90.174 12.9975 91.7725 12.8688V9.02263C90.8391 9.02263 90.0023 9.21038 89.262 9.58587C88.5218 9.95064 87.8405 10.53 87.2183 11.3239V9.28011H83.3561V26.982H87.4758V17.954C87.4758 16.1087 87.7922 14.8321 88.4252 14.124Z" fill="white"/>
<path d="M117.456 11.2917V9.28011H113.433V26.982H117.408V19.4024C117.408 17.0421 117.708 15.3792 118.309 14.4137C118.91 13.4374 119.897 12.9492 121.27 12.9492C122.611 12.9492 123.555 13.3891 124.103 14.2688C124.65 15.1486 124.923 16.7739 124.923 19.1449V26.982H129.043V17.6161C129.043 16.039 128.952 14.8428 128.769 14.0274C128.598 13.2013 128.308 12.4664 127.9 11.8227C127.267 10.8572 126.474 10.133 125.519 9.65024C124.575 9.16747 123.464 8.92608 122.188 8.92608C121.19 8.92608 120.299 9.11919 119.516 9.50541C118.744 9.89163 118.057 10.4871 117.456 11.2917Z" fill="white"/>
<path d="M36.9492 3.55116H40.9062V27.0456H36.9492V3.55116Z" fill="white"/>
<path d="M52.1512 9.28847L46.0749 17.7588L52.7003 26.9909H48.2734L41.648 17.7588L47.7244 9.28847H52.1512Z" fill="white"/>
</svg>
